:SAMPLES-PER-SECOND 30
:FULLY-SPECIFIED
:DEGREES
13
root  34.9046572 36.55574829 -14.63768276 9.522911072 -4.107319832 3.077663183
lowerback  -8.860676765 -0.1541610807 -0.2228979766
upperback  -3.734993696 0.2699640095 -3.174910069
thorax  1.109680057 0.280916661 -3.128495455
lowerneck  -15.00049973 -4.582530022 -3.45223999
upperneck  15.63389969 -6.490240097 6.600709915
head  7.623569965 -2.580250025 2.029649973
lclavicle  0 -4.497500157e-015 -2.743230041e-014
lhumerus  -47.83720016 30.98810005 63.2201004
lradius  0.003512130119 -6.507048965e-006 29.59070015
lwrist  3.192251654e-007 -3.790274832e-007 -28.45849991
lhand  -4.420116695e-031 -36.97710037 -10.6882
lfingers  90 7.125020027 -90
lthumb  94.85499689 -25.52104711 101.1526354
rclavicle  0 -4.497500157e-015 -2.743230041e-014
rhumerus  -53.6928978 -42.04009628 -46.26310349
rradius  -5.16745672e-007 2.214343908e-008 39.47259903
rwrist  0.0006954420824 -0.004670973402 -145.1640015
rhand  -1.767201528e-031 -2.46784997 -7.832709789
rfingers  -90 -7.125020027 -90
rthumb  -86.60806753 -7.850481319 -66.54259248
rfemur  -12.52499294 15.88225746 12.91103935
rtibia  -0.534019649 -0.6565869451 19.90221977
rfoot  0.3612883389 -21.41575432 -36.76416016
rtoes  4.089607868 19.59419483 -102.0353759
lfemur  -8.527799606 -15.8503418 -19.67954826
ltibia  2.522117138 0.1157257035 14.08932495
lfoot  0.3875652552 -25.1548481 35.8936348
ltoes  -8.664161074 -18.09554429 -116.132542
14
root  34.90432679 36.55708193 -14.6356868 9.54033947 -4.091498375 3.072835922
lowerback  -8.833660126 -0.1606380492 -0.239534989
upperback  -3.735556841 0.2628009915 -3.184910059
thorax  1.093219995 0.2795136571 -3.125820875
lowerneck  -14.96780014 -4.606160164 -3.458410025
upperneck  15.57250023 -6.520160675 6.601099968
head  7.599500179 -2.59758997 2.027709961
lclavicle  0 -4.497500157e-015 -2.743230041e-014
lhumerus  -47.84780121 31.02589989 63.17200089
lradius  0.003819144331 -6.507048965e-006 29.5576992
lwrist  3.192251654e-007 -3.790274832e-007 -28.49769974
lhand  -4.417297195e-031 -36.92850113 -10.7020998
lfingers  90 7.125020027 -90
lthumb  94.83520666 -25.53638232 101.1020268
rclavicle  0 -4.497500157e-015 -2.743230041e-014
rhumerus  -53.34980011 -41.45289993 -46.90219879
rradius  -5.16745672e-007 2.214343908e-008 40.1731987
rwrist  0.0006954420824 -0.004670973402 -145.4660034
rhand  -1.767294701e-031 -2.5369699 -7.936399937
rfingers  -90 -7.125020027 -90
rthumb  -86.66210853 -7.751509935 -66.61550028
rfemur  -12.53812313 15.82892036 12.91855526
rtibia  -0.5334711075 -0.614027977 19.90329933
rfoot  0.3798158765 -21.32089043 -36.7231102
rtoes  4.110411721 19.5900051 -102.0974174
lfemur  -8.517040253 -15.84357452 -19.67693329
ltibia  2.539343596 0.1420523673 14.04634094
lfoot  0.3820476234 -25.18320084 35.88339233
ltoes  -8.671041421 -18.09233415 -116.1546955
15
root  34.90453705 36.55840356 -14.63433964 9.538440704 -4.09022665 3.066345453
lowerback  -8.837129593 -0.1491339803 -0.2483253032
upperback  -3.736451149 0.2787140012 -3.186650038
thorax  1.102270007 0.2790403962 -3.123191833
lowerneck  -14.94569969 -4.641489983 -3.519789934
upperneck  15.51029968 -6.559669971 6.633100033
head  7.58054018 -2.619790077 2.043849945
lclavicle  0 -4.497500157e-015 -2.743230041e-014
lhumerus  -47.83539963 31.04030037 63.18830109
lradius  0.004140005913 -6.507048965e-006 29.54899979
lwrist  3.192251654e-007 -3.790274832e-007 -28.50200081
lhand  -4.415618017e-031 -36.8995018 -10.71930027
lfingers  90 7.125020027 -90
lthumb  94.82525103 -25.5543446 101.0725427
rclavicle  0 -4.497500157e-015 -2.743230041e-014
rhumerus  -53.09289932 -40.86790085 -47.45240402
rradius  -5.16745672e-007 2.214343908e-008 40.81990051
rwrist  0.0006954420824 -0.004670973402 -146.621994
rhand  -1.767463151e-031 -2.657360077 -8.024319649
rfingers  -90 -7.125020027 -90
rthumb  -86.71858655 -7.664238679 -66.73734032
rfemur  -12.53753853 15.83896542 12.92766476
rtibia  -0.5331484079 -0.600643158 19.90562057
rfoot  0.3946706653 -21.29751015 -36.69173431
rtoes  4.091489529 19.59381679 -102.0409869
lfemur  -8.486346245 -15.87967396 -19.68278503
ltibia  2.553020716 0.1308873296 14.01397514
lfoot  0.3782992363 -25.13801193 35.92191315
ltoes  -8.70464505 -18.07660984 -116.2629481
16
root  34.90438687 36.55888715 -14.63288285 9.515936852 -4.083275318 3.072646379
lowerback  -8.85766983 -0.1581139714 -0.2754643559
upperback  -3.737680435 0.2719190121 -3.202970028
thorax  1.109140038 0.2792830467 -3.122525215
lowerneck  -14.9229002 -4.643939972 -3.457429886
upperneck  15.44200039 -6.572680473 6.622570038
head  7.552400112 -2.625590086 2.029050112
lclavicle  0 -4.497500157e-015 -2.743230041e-014
lhumerus  -47.82839966 31.03019905 63.15599823
lradius  0.004472736735 -6.507048965e-006 29.54189873
lwrist  3.192251654e-007 -3.790274832e-007 -28.47529984
lhand  -0 -36.88869858 -10.6729002
lfingers  90 7.125020027 -90
lthumb  94.81034016 -25.50918758 101.0567914
rclavicle  0 -4.497500157e-015 -2.743230041e-014
rhumerus  -52.74259949 -40.26779938 -48.15739822
rradius  -5.16745672e-007 2.214343908e-008 41.56100082
rwrist  0.0006954420824 -0.004670973402 -147.0570068
rhand  -1.76731903e-031 -2.554709911 -8.057049751
rfingers  -90 -7.125020027 -90
rthumb  -86.71352048 -7.639860634 -66.63920388
rfemur  -12.49717808 15.82284164 12.93076038
rtibia  -0.5331549644 -0.5919010639 19.88715935
rfoot  0.3679558039 -21.28106117 -36.77960205
rtoes  4.101608166 19.59178079 -102.0711618
lfemur  -8.439861298 -15.88755703 -19.70759201
ltibia  2.576366186 0.1206069887 13.98142242
lfoot  0.3766014576 -25.10605049 35.91426086
ltoes  -8.757934048 -18.05151712 -116.4348035
17
root  34.90367799 36.55940078 -14.63053996 9.50613308 -4.068769932 3.075728655
lowerback  -8.857449532 -0.170975998 -0.2857269049
upperback  -3.739248753 0.2563830018 -3.204839945
thorax  1.103569984 0.280028075 -3.12519002
lowerneck  -14.91759968 -4.672410011 -3.510499954
upperneck  15.4137001 -6.605829716 6.65775013
head  7.547070026 -2.642359972 2.045419931
lclavicle  0 -4.497500157e-015 -2.743230041e-014
lhumerus  -47.86380005 31.07719994 63.09500122
lradius  0.004815359134 -6.507048965e-006 29.53536987
lwrist  3.192251654e-007 -3.790274832e-007 -28.5272007
lhand  -4.417030646e-031 -36.9239006 -10.73480034
lfingers  90 7.125020027 -90
lthumb  94.84002006 -25.56875227 101.1000573
rclavicle  0 -4.497500157e-015 -2.743230041e-014
rhumerus  -52.40869904 -39.60529709 -48.79180527
rradius  -5.16745672e-007 2.214343908e-008 42.37490082
rwrist  0.0006954420824 -0.004670973402 -147.6970062
rhand  -1.767118542e-031 -2.404609919 -8.008540154
rfingers  -90 -7.125020027 -90
rthumb  -86.66744298 -7.692654605 -66.49058299
rfemur  -12.46198368 15.81830311 12.93461037
rtibia  -0.5337992311 -0.6094694138 19.85593987
rfoot  0.4156311154 -21.30026627 -36.69281769
rtoes  4.094471924 19.59321724 -102.0498804
lfemur  -8.412296295 -15.92055607 -19.72618294
ltibia  2.596252441 0.1087947935 13.96659756
lfoot  0.3792861998 -25.07818985 35.91725922
ltoes  -8.77677236 -18.04260034 -116.4956118
18
root  34.90290905 36.56000453 -14.62883536 9.503225327 -4.066870213 3.086628914
lowerback  -8.83886528 -0.1744136661 -0.2676884532
upperback  -3.741159916 0.2785339952 -3.205729961
thorax  1.09454 0.2810617387 -3.132019997
lowerneck  -14.89990044 -4.721290112 -3.598839998
upperneck  15.36750031 -6.662290573 6.71310997
head  7.536980152 -2.671190023 2.071640015
lclavicle  0 -4.497500157e-015 -2.743230041e-014
lhumerus  -47.85910034 31.01919937 63.1446991
lradius  0.00516589405 -6.507048965e-006 29.53765869
lwrist  3.192251654e-007 -3.790274832e-007 -28.5182972
lhand  -4.418607397e-031 -36.9510994 -10.74730015
lfingers  90 7.125020027 -90
lthumb  94.85548972 -25.57997315 101.1303741
rclavicle  0 -4.497500157e-015 -2.743230041e-014
rhumerus  -52.12239838 -38.81259918 -49.42760086
rradius  -5.16745672e-007 2.214343908e-008 43.13330078
rwrist  0.0006954420824 -0.004670973402 -149.2180023
rhand  -1.766929484e-031 -2.253900051 -7.899950027
rfingers  -90 -7.125020027 -90
rthumb  -86.59652358 -7.800549324 -66.33799071
rfemur  -12.4643755 15.86059856 12.92609215
rtibia  -0.5435382724 -0.6082859635 19.84843636
rfoot  0.4208140075 -21.26974678 -36.72055817
rtoes  4.070858289 19.59795174 -101.9794716
lfemur  -8.408337593 -15.9103241 -19.750494
ltibia  2.61891818 0.1064772829 13.95893955
lfoot  0.3889091611 -25.0762558 35.8988266
ltoes  -8.749847755 -18.05533721 -116.4087106
